Coordinates
version=1
nRows=26
nColumns=24
inDegrees=yes

Units are S.I. units (second, meters, Newtons, ...)
Angles are in degrees.

endheader
time	pelvis_tilt	pelvis_list	pelvis_rotation	pelvis_tx	pelvis_ty	pelvis_tz	hip_flexion_r	hip_adduction_r	hip_rotation_r	knee_angle_r	ankle_angle_r	subtalar_angle_r	mtp_angle_r	hip_flexion_l	hip_adduction_l	hip_rotation_l	knee_angle_l	ankle_angle_l	subtalar_angle_l	mtp_angle_l	lumbar_extension	lumbar_bending	lumbar_rotation
      3.98000000	     24.36282079	      0.57354637	      0.18764667	      0.61976323	      1.02149046	      0.01251523	    -32.81466710	     -3.76081101	     -9.20556196	    -31.85350265	      1.03448283	     -2.33628555	     51.80687950	     -5.43439942	      0.82243523	     -3.23894698	    -17.66818868	      1.18787440	     -6.30920820	      9.17214493	    -39.09500000	     -3.53393928	      1.84946203
      3.98500000	     24.32763951	      0.68702807	      0.00211499	      0.62529955	      1.02187205	      0.01176245	    -32.01327475	     -4.20812557	     -9.17932276	    -33.41540707	      0.15143360	     -2.72068941	     51.85019949	     -5.58885656	      1.05090080	     -3.23037313	    -17.99284902	      1.58340070	     -6.52787877	      9.07051797	    -39.01213773	     -3.74590654	      1.90541132
      3.99000000	     24.24190505	      0.77295311	     -0.12203398	      0.63076949	      1.02217317	      0.01099487	    -31.14671333	     -4.58015862	     -9.14038503	    -34.95156573	     -0.68527522	     -3.20375344	     52.06046970	     -5.67380461	      1.22947319	     -3.22767531	    -18.34281716	      2.11407404	     -6.60630441	      8.88329998	    -38.88435489	     -3.89858556	      1.87297906
      3.99500000	     24.19212250	      0.87747053	     -0.25687106	      0.63625616	      1.02256239	      0.01026034	    -30.32453645	     -4.97813335	     -9.13297501	    -36.41830135	     -1.58477562	     -3.86784181	     54.19175178	     -5.84935315	      1.41911722	     -3.28903932	    -18.60806012	      2.81024554	     -6.42967205	      6.90057007	    -38.78892750	     -4.07372652	      1.86479784
      4.00000000	     24.13907155	      0.99660828	     -0.39440956	      0.64167922	      1.02294934	      0.00951788	    -29.48109340	     -5.38430827	     -9.10354725	    -37.89179941	     -2.18859668	     -4.40330694	     54.11847451	     -6.06185918	      1.63569467	     -3.30800756	    -18.77302258	      3.22964627	     -6.46793692	      6.86841474	    -38.69543075	     -4.25824684	      1.85141661
      4.00500000	     24.03892908	      1.04518995	     -0.52375743	      0.64698775	      1.02330967	      0.00886194	    -28.56195319	     -5.69088158	     -8.98870085	    -39.33316173	     -2.71772921	     -5.02076919	     54.05619628	     -6.21371955	      1.75892845	     -3.39446515	    -18.94993088	      3.68330919	     -6.44482634	      6.80256326	    -38.55956119	     -4.37945141	      1.85270709
      4.01000000	     23.97790578	      1.11811362	     -0.66719973	      0.65229434	      1.02374074	      0.00821969	    -27.69118393	     -6.02371100	     -8.88149691	    -40.71726697	     -3.12265037	     -5.63006742	     53.99190421	     -6.46332690	      1.91297654	     -3.48347246	    -19.01942001	      4.09308818	     -6.38117007	      6.73372478	    -38.46251604	     -4.52587475	      1.85667898
      4.01500000	     23.90949246	      1.15687939	     -0.80703192	      0.65752489	      1.02420306	      0.00763947	    -26.80431820	     -6.30093674	     -8.73644431	    -42.04979439	     -3.43378503	     -6.27182127	     53.90628260	     -6.71639700	      2.02191688	     -3.60504445	    -19.05996869	      4.48917146	     -6.29234669	      6.66146819	    -38.36240708	     -4.64088516	      1.86674450
      4.02000000	     23.83073225	      1.17395700	     -0.94887181	      0.66268635	      1.02467408	      0.00709467	    -25.89832632	     -6.54334566	     -8.56897678	    -43.33334011	     -3.64150045	     -6.91158662	     53.79455498	     -6.97212322	      2.10484234	     -3.74444904	    -19.06725173	      4.87346212	     -6.18688972	      6.58585856	    -38.25626925	     -4.73529870	      1.89076073
      4.02500000	     23.76289559	      1.14380561	     -1.09398865	      0.66775685	      1.02517980	      0.00660883	    -24.99603262	     -6.72188260	     -8.36839237	    -44.55780285	     -3.77502006	     -7.54463610	     53.61553429	     -7.23913921	      2.13046117	     -3.93210621	    -19.07398615	      5.28679189	     -6.05692025	      6.46740351	    -38.16627715	     -4.78772058	      1.95644872
      4.03000000	     23.69835303	      1.11219186	     -1.21717401	      0.67278511	      1.02571025	      0.00618380	    -24.10758226	     -6.86937407	     -8.18434621	    -45.71863819	     -3.76674224	     -8.13836959	     53.10888813	     -7.52649719	      2.14112395	     -4.10251387	    -19.04352806	      5.72949774	     -5.76127829	      6.07341121	    -38.08490650	     -4.83256234	      1.98184965
      4.03500000	     23.64042958	      1.06102370	     -1.39376879	      0.67772889	      1.02629084	      0.00579458	    -23.20468938	     -7.01164071	     -7.93538428	    -46.82986595	     -3.74979913	     -8.67997365	     52.90753550	     -7.84990247	      2.15868162	     -4.27557534	    -18.94311400	      6.01141849	     -5.75335304	      5.96347073	    -38.01269588	     -4.88073804	      2.07731123
      4.04000000	     23.62530360	      1.04884234	     -1.53662401	      0.68265962	      1.02691832	      0.00543435	    -22.37444467	     -7.17242766	     -7.76922884	    -47.86237061	     -3.60615896	     -9.19095797	     52.77457718	     -8.22571866	      2.20614816	     -4.43727266	    -18.82566969	      6.27634184	     -5.64945571	      5.93017805	    -37.98793228	     -4.95013269	      2.08148679
      4.04500000	     23.51219295	      0.89617463	     -1.70130323	      0.68743510	      1.02746315	      0.00518725	    -21.39814915	     -7.15810731	     -7.46441797	    -48.85584923	     -3.49361544	     -9.64277113	     52.45092985	     -8.47619278	      2.09474671	     -4.63809954	    -18.74756620	      6.65004845	     -5.45752304	      5.82932098	    -37.86925926	     -4.90396518	      2.24836268
      4.05000000	     23.47229403	      0.80316808	     -1.85688349	      0.69223568	      1.02810374	      0.00498311	    -20.53129390	     -7.19219433	     -7.22276194	    -49.77970138	     -3.15034313	     -9.89489931	     50.55683935	     -8.83479932	      2.04938060	     -4.82428272	    -18.61133122	      7.02509523	     -5.25060099	      4.93168589	    -37.82622723	     -4.91074309	      2.31665271
      4.05500000	     23.43571509	      0.71223957	     -2.00006859	      0.69694770	      1.02874239	      0.00476447	    -19.67264803	     -7.22003717	     -7.01091932	    -50.62497953	     -2.87658007	    -10.22226702	     50.53688936	     -9.18501104	      2.01219049	     -4.98127602	    -18.47940588	      7.24947312	     -5.19269638	      4.92907880	    -37.79712949	     -4.90836931	      2.36927934
      4.06000000	     23.35524094	      0.57972899	     -2.15046956	      0.70162405	      1.02933060	      0.00460957	    -18.76297778	     -7.18502375	     -6.76465194	    -51.41155010	     -2.59100278	    -10.47637432	     50.48184665	     -9.49086441	      1.92758087	     -5.14555068	    -18.34396364	      7.51196596	     -5.09053433	      4.92764672	    -37.72127723	     -4.87207374	      2.46697767
      4.06500000	     23.28278543	      0.43506251	     -2.28087184	      0.70626738	      1.02993370	      0.00447565	    -17.87918539	     -7.11631683	     -6.54424204	    -52.11874316	     -2.27623282	    -10.66417514	     50.40165775	     -9.80423135	      1.82686499	     -5.28791645	    -18.20799560	      7.76928170	     -4.99185373	      4.92094925	    -37.65802515	     -4.81413012	      2.55355579
      4.07000000	     23.18399693	      0.28398681	     -2.41441825	      0.71090970	      1.03050284	      0.00436307	    -16.97289631	     -7.03484701	     -6.33702831	    -52.76510430	     -1.96182557	    -10.75846580	     50.25542888	    -10.09742408	      1.72024966	     -5.42154039	    -18.05613761	      8.01998256	     -4.85876068	      4.89261262	    -37.56490267	     -4.75107132	      2.67495652
      4.07500000	     23.11458673	      0.14630899	     -2.53180761	      0.71552561	      1.03108528	      0.00425243	    -16.11846682	     -6.95065985	     -6.15406743	    -53.33814532	     -1.58113375	    -10.79473422	     50.08847572	    -10.42063064	      1.62932718	     -5.53808169	    -17.90264686	      8.25899976	     -4.77962107	      4.85211724	    -37.50770463	     -4.69013349	      2.74705037
      4.08000000	     23.05072541	      0.00643041	     -2.63675171	      0.72015050	      1.03167805	      0.00414216	    -15.29142938	     -6.85193940	     -5.99628982	    -53.83201878	     -1.18030774	    -10.76977854	     49.90711958	    -10.75442748	      1.53658853	     -5.63471384	    -17.74112234	      8.48443322	     -4.71507315	      4.80424185	    -37.45520569	     -4.61783877	      2.80575722
      4.08500000	     22.99040014	     -0.12900376	     -2.72255109	      0.72478169	      1.03225775	      0.00402841	    -14.48925273	     -6.74475621	     -5.87007428	    -54.25372332	     -0.76211685	    -10.68100211	     49.68991870	    -11.09521510	      1.44644447	     -5.70740598	    -17.57229632	      8.71362886	     -4.65521793	      4.74288946	    -37.40697390	     -4.53992716	      2.85213630
      4.09000000	     23.01722942	     -0.26281459	     -2.72582891	      0.72947102	      1.03295085	      0.00378822	    -13.85018714	     -6.61928815	     -5.86057407	    -54.53882400	     -0.36907771	    -10.70529521	     49.64084610	    -11.54738437	      1.35735357	     -5.66686659	    -17.36780022	      8.92490174	     -4.66812772	      4.73743956	    -37.45039023	     -4.41477505	      2.82341023
      4.09500000	     22.92713969	     -0.40503953	     -2.82903120	      0.73416506	      1.03346674	      0.00367649	    -13.04209622	     -6.50118012	     -5.73126499	    -54.83454087	      0.10302272	    -10.41025739	     49.43829871	    -11.87003356	      1.26448417	     -5.79861679	    -17.18152198	      9.13235106	     -4.59811348	      4.67614033	    -37.36371619	     -4.32867076	      2.86286282
      4.10000000	     22.86333089	     -0.51662075	     -2.84461583	      0.73883930	      1.03399385	      0.00344874	    -12.30144680	     -6.39053473	     -5.72245250	    -55.06177126	      0.66032374	    -10.10127847	     47.21774762	    -12.21556700	      1.19856393	     -5.75139840	    -16.99115821	      9.41825386	     -4.56961227	      3.91482787	    -37.31196743	     -4.22385924	      2.84608466
      4.10500000	     22.91069858	     -0.64023575	     -2.84923487	      0.74364043	      1.03466476	      0.00320469	    -11.74528140	     -6.27331162	     -5.75472356	    -55.13628085	      1.10414021	     -9.94058762	     47.23950397	    -12.72136127	      1.12094669	     -5.76887741	    -16.73720861	      9.59816784	     -4.54357233	      3.90681087	    -37.36622094	     -4.10238032	      2.80785126
